<svg xmlns="http://www.w3.org/2000/svg" viewBox="0 0 64 64" width="64px" height="64px"><linearGradient id="ERXhbMl5aahw4p_HCs0Aea" x1="32" x2="32" y1="6" y2="58" gradientUnits="userSpaceOnUse" spreadMethod="reflect"><stop offset="0" stop-color="#1a6dff"/><stop offset="1" stop-color="#c822ff"/></linearGradient><path fill="none" stroke="url(#ERXhbMl5aahw4p_HCs0Aea)" stroke-miterlimit="10" stroke-width="2" d="M32 7A25 25 0 1 0 32 57A25 25 0 1 0 32 7Z"/><linearGradient id="ERXhbMl5aahw4p_HCs0Aeb" x1="31" x2="31" y1="16" y2="49.98" gradientUnits="userSpaceOnUse" spreadMethod="reflect"><stop offset="0" stop-color="#6dc7ff"/><stop offset="1" stop-color="#e6abff"/></linearGradient><path fill="url(#ERXhbMl5aahw4p_HCs0Aeb)" d="M47.93,16.83C47.89,16.35,47.49,16,47.01,16h-1.25c-5.31,0-11.52,3.05-16.63,8.15L29,24.27 c-0.52,0.52-1.02,1.02-1.52,1.56c-0.32,0.34-0.77,0.55-1.22,0.57c-4.01,0.2-7.072,1.12-9.922,3.95l-2.07,2.09 c-0.26,0.26-0.34,0.65-0.2,0.99c0.14,0.34,0.47,0.57,0.85,0.57h8.07l-0.278,1.27c-0.33,0.99-0.08,2.07,0.67,2.82l2.55,2.54 c0.73,0.73,1.84,0.99,2.82,0.67L30,41v8.06c0,0.38,0.22,0.7,0.57,0.85c0.11,0.05,0.22,0.07,0.35,0.07c0.24,0,0.48-0.09,0.65-0.27 l2.07-2.08c2.83-2.82,3.76-5.84,3.98-9.81c0.02-0.47,0.25-0.91,0.61-1.25c0.53-0.48,1.05-1.01,1.64-1.69 C45.41,29.35,48.51,22.43,47.93,16.83z M38,29c-1.66,0-3-1.34-3-3c0-1.66,1.34-3,3-3s3,1.34,3,3C41,27.66,39.66,29,38,29z"/><linearGradient id="ERXhbMl5aahw4p_HCs0Aec" x1="21" x2="21" y1="16.5" y2="49.786" gradientUnits="userSpaceOnUse" spreadMethod="reflect"><stop offset="0" stop-color="#6dc7ff"/><stop offset="1" stop-color="#e6abff"/></linearGradient><path fill="url(#ERXhbMl5aahw4p_HCs0Aec)" d="M24.839,43.629c-0.286,0.411-0.617,0.811-0.937,1.131C22.45,46.2,20.553,47,18.565,47 c-0.251,0-0.491-0.011-0.731-0.034c-0.446-0.046-0.8-0.411-0.823-0.869c-0.114-2.217,0.731-4.4,2.32-5.966 c0.331-0.343,0.766-0.686,1.211-0.971C20.69,39.057,20.885,39,21.068,39c0.754,0,0.994,0.731,1.109,1.074 c0.274,0.869,0.937,1.577,1.76,1.886c0.434,0.171,0.869,0.366,1.017,0.846C25.045,43.069,24.999,43.4,24.839,43.629z"/></svg>